<svg xmlns="http://www.w3.org/2000/svg" width="1000" height="560" viewBox="0 0 1000 560" role="img" aria-labelledby="title desc">
  <title id="title">Content plan board illustration</title>
  <desc id="desc">A generic board with cards representing publishing categories and article ideas.</desc>
  <defs>
    <linearGradient id="bg" x1="0" y1="0" x2="1" y2="1">
      <stop offset="0" stop-color="#eef5ff"/>
      <stop offset="1" stop-color="#ffffff"/>
    </linearGradient>
  </defs>
  <rect width="1000" height="560" rx="28" fill="url(#bg)" stroke="#d6e6ff"/>
  <rect x="110" y="110" width="780" height="340" rx="22" fill="#ffffff" stroke="#d6e6ff"/>

  <!-- columns -->
  <rect x="150" y="150" width="220" height="260" rx="18" fill="#f7fbff" stroke="#d6e6ff"/>
  <rect x="390" y="150" width="220" height="260" rx="18" fill="#f7fbff" stroke="#d6e6ff"/>
  <rect x="630" y="150" width="220" height="260" rx="18" fill="#f7fbff" stroke="#d6e6ff"/>

  <rect x="170" y="175" width="160" height="12" rx="6" fill="#2b6de8" opacity="0.9"/>
  <rect x="410" y="175" width="160" height="12" rx="6" fill="#2b6de8" opacity="0.9"/>
  <rect x="650" y="175" width="160" height="12" rx="6" fill="#2b6de8" opacity="0.9"/>

  <!-- cards -->
  <rect x="170" y="210" width="180" height="58" rx="14" fill="#ffffff" stroke="#d6e6ff"/>
  <rect x="170" y="282" width="180" height="58" rx="14" fill="#ffffff" stroke="#d6e6ff"/>
  <rect x="170" y="354" width="180" height="40" rx="14" fill="#ffffff" stroke="#d6e6ff"/>

  <rect x="410" y="210" width="180" height="58" rx="14" fill="#ffffff" stroke="#d6e6ff"/>
  <rect x="410" y="282" width="180" height="58" rx="14" fill="#ffffff" stroke="#d6e6ff"/>

  <rect x="650" y="210" width="180" height="58" rx="14" fill="#ffffff" stroke="#d6e6ff"/>
  <rect x="650" y="282" width="180" height="58" rx="14" fill="#ffffff" stroke="#d6e6ff"/>

  <!-- card lines -->
  <g fill="#9dc4ff" opacity="0.75">
    <rect x="188" y="232" width="140" height="10" rx="5"/>
    <rect x="188" y="250" width="110" height="10" rx="5"/>

    <rect x="188" y="304" width="130" height="10" rx="5"/>
    <rect x="188" y="322" width="120" height="10" rx="5"/>

    <rect x="188" y="370" width="120" height="10" rx="5"/>

    <rect x="428" y="232" width="140" height="10" rx="5"/>
    <rect x="428" y="250" width="110" height="10" rx="5"/>

    <rect x="428" y="304" width="130" height="10" rx="5"/>
    <rect x="428" y="322" width="120" height="10" rx="5"/>

    <rect x="668" y="232" width="140" height="10" rx="5"/>
    <rect x="668" y="250" width="110" height="10" rx="5"/>

    <rect x="668" y="304" width="130" height="10" rx="5"/>
    <rect x="668" y="322" width="120" height="10" rx="5"/>
  </g>
</svg>
