<svg xmlns="http://www.w3.org/2000/svg" width="1000" height="560" viewBox="0 0 1000 560" role="img" aria-labelledby="title desc">
  <title id="title">Final CV checklist illustration</title>
  <desc id="desc">A generic checklist card with check marks representing final resume checks.</desc>
  <defs>
    <linearGradient id="bg" x1="0" y1="0" x2="1" y2="1">
      <stop offset="0" stop-color="#f7fbff"/>
      <stop offset="1" stop-color="#ffffff"/>
    </linearGradient>
  </defs>
  <rect width="1000" height="560" rx="28" fill="url(#bg)" stroke="#d6e6ff"/>
  <rect x="150" y="90" width="700" height="380" rx="22" fill="#ffffff" stroke="#d6e6ff"/>
  <rect x="200" y="140" width="260" height="16" rx="8" fill="#2b6de8"/>

  <g fill="none" stroke="#0b7a3b" stroke-width="10" stroke-linecap="round" stroke-linejoin="round" opacity="0.9">
    <path d="M210 220l18 18 34-44"/>
    <path d="M210 275l18 18 34-44"/>
    <path d="M210 330l18 18 34-44"/>
    <path d="M210 385l18 18 34-44"/>
  </g>

  <rect x="290" y="207" width="500" height="14" rx="7" fill="#9dc4ff" opacity="0.85"/>
  <rect x="290" y="262" width="450" height="14" rx="7" fill="#9dc4ff" opacity="0.75"/>
  <rect x="290" y="317" width="520" height="14" rx="7" fill="#9dc4ff" opacity="0.65"/>
  <rect x="290" y="372" width="410" height="14" rx="7" fill="#9dc4ff" opacity="0.55"/>

  <rect x="200" y="430" width="220" height="12" rx="6" fill="#475467" opacity="0.22"/>
</svg>
