<svg xmlns="http://www.w3.org/2000/svg" width="1000" height="560" viewBox="0 0 1000 560" role="img" aria-labelledby="title desc">
  <title id="title">Wi‑Fi troubleshooting illustration</title>
  <desc id="desc">A generic router icon and signal arcs with simple step cards.</desc>
  <defs>
    <linearGradient id="bg" x1="0" y1="0" x2="1" y2="1">
      <stop offset="0" stop-color="#f7fbff"/>
      <stop offset="1" stop-color="#ffffff"/>
    </linearGradient>
  </defs>
  <rect width="1000" height="560" rx="28" fill="url(#bg)" stroke="#d6e6ff"/>

  <!-- router -->
  <rect x="120" y="300" width="340" height="140" rx="22" fill="#ffffff" stroke="#d6e6ff"/>
  <rect x="160" y="345" width="260" height="14" rx="7" fill="#2b6de8" opacity="0.9"/>
  <circle cx="180" cy="395" r="10" fill="#0b7a3b" opacity="0.9"/>
  <circle cx="215" cy="395" r="10" fill="#f0b429" opacity="0.9"/>
  <circle cx="250" cy="395" r="10" fill="#9dc4ff" opacity="0.9"/>

  <!-- wifi arcs -->
  <g fill="none" stroke="#2b6de8" stroke-linecap="round" opacity="0.6">
    <path d="M290 250c60-60 160-60 220 0" stroke-width="12"/>
    <path d="M330 270c40-40 100-40 140 0" stroke-width="12"/>
    <path d="M370 292c20-20 60-20 80 0" stroke-width="12"/>
  </g>
  <circle cx="410" cy="318" r="10" fill="#2b6de8" opacity="0.85"/>

  <!-- steps -->
  <rect x="520" y="130" width="360" height="110" rx="18" fill="#ffffff" stroke="#d6e6ff"/>
  <rect x="520" y="260" width="360" height="110" rx="18" fill="#ffffff" stroke="#d6e6ff"/>
  <rect x="520" y="390" width="360" height="110" rx="18" fill="#ffffff" stroke="#d6e6ff"/>

  <rect x="550" y="165" width="220" height="12" rx="6" fill="#2b6de8"/>
  <rect x="550" y="190" width="300" height="10" rx="5" fill="#9dc4ff" opacity="0.75"/>

  <rect x="550" y="295" width="200" height="12" rx="6" fill="#2b6de8"/>
  <rect x="550" y="320" width="280" height="10" rx="5" fill="#9dc4ff" opacity="0.75"/>

  <rect x="550" y="425" width="240" height="12" rx="6" fill="#2b6de8"/>
  <rect x="550" y="450" width="260" height="10" rx="5" fill="#9dc4ff" opacity="0.75"/>
</svg>
